<?xml version="1.0" standalone="no"?>
<!DOCTYPE svg PUBLIC "-//W3C//DTD SVG 20010904//EN"
 "http://www.w3.org/TR/2001/REC-SVG-20010904/DTD/svg10.dtd">
<svg version="1.0" xmlns="http://www.w3.org/2000/svg"
 width="1080.000000pt" height="1080.000000pt" viewBox="0 0 1080.000000 1080.000000"
 preserveAspectRatio="xMidYMid meet">

<g transform="translate(0.000000,1080.000000) scale(0.100000,-0.100000)"
fill="#D45600" stroke="none">
<path d="M4085 10758 c386 -317 707 -753 885 -1198 57 -143 126 -387 153 -539
18 -109 21 -163 21 -401 0 -240 -2 -292 -22 -405 -63 -362 -178 -699 -358
-1045 -135 -258 -290 -466 -505 -675 -232 -225 -401 -352 -954 -715 -554 -364
-713 -486 -981 -754 -298 -299 -481 -568 -644 -951 -151 -355 -260 -845 -260
-1169 0 -916 602 -1807 1725 -2553 189 -126 561 -343 588 -343 3 0 -25 64 -63
143 -160 336 -264 684 -315 1057 -22 164 -30 524 -16 695 79 911 518 1836
1272 2680 125 140 472 485 528 524 l34 25 -7 -25 c-4 -13 -33 -127 -66 -254
-97 -378 -162 -731 -202 -1095 -20 -185 -17 -744 5 -910 58 -433 168 -748 362
-1040 83 -124 247 -298 364 -385 91 -68 244 -152 324 -179 l48 -16 85 56 c478
319 943 928 1189 1562 26 67 30 72 39 50 5 -13 10 -159 10 -348 1 -347 -7
-436 -59 -695 -90 -444 -290 -888 -563 -1250 -132 -173 -352 -402 -505 -523
-43 -34 -77 -62 -75 -62 9 0 165 63 273 110 396 173 757 388 1070 636 136 108
422 393 536 534 508 625 792 1371 868 2275 67 805 -56 1765 -344 2679 -65 206
-144 419 -145 391 -2 -73 -23 -333 -36 -450 -64 -579 -223 -1080 -458 -1443
-168 -259 -394 -467 -631 -583 -101 -48 -249 -98 -261 -87 -3 4 4 69 15 145
120 795 147 1616 75 2313 -107 1048 -432 1957 -962 2690 -320 443 -705 812
-1148 1103 -281 185 -577 336 -827 422 l-102 36 40 -33z"/>
</g>
</svg>
